M48
; DRILL file KiCad 10.0.1 date 2026-05-02T11:53:08
; FORMAT={-:-/ absolute / metric / decimal}
; #@! TF.CreationDate,2026-05-02T11:53:08-06:00
; #@! TF.GenerationSoftware,Kicad,Pcbnew,10.0.1
; #@! TF.FileFunction,Plated,1,2,PTH
FMAT,2
METRIC
; #@! TA.AperFunction,Plated,PTH,ViaDrill
T1C0.300
; #@! TA.AperFunction,Plated,PTH,ViaDrill
T2C0.400
; #@! TA.AperFunction,Plated,PTH,ComponentDrill
T3C0.750
; #@! TA.AperFunction,Plated,PTH,ComponentDrill
T4C1.000
%
G90
G05
T1
X110.259Y-104.053
X112.469Y-104.104
X113.84Y-106.593
T2
X99.635Y-130.133
X99.66Y-102.726
X100.092Y-116.265
X102.87Y-97.003
X102.87Y-99.695
X103.8Y-130.133
X103.953Y-116.265
X104.004Y-102.752
X107.236Y-118.963
X107.407Y-132.267
X107.61Y-105.012
X109.929Y-117.693
X109.947Y-130.793
X112.198Y-145.865
X112.487Y-130.946
X113.205Y-118.15
X113.993Y-120.258
X114.509Y-145.814
X114.545Y-92.516
X121.149Y-127.136
X121.225Y-136.153
X121.301Y-99.374
X121.308Y-111.876
X121.41Y-105.145
X121.74Y-120.436
X134.484Y-111.108
X134.585Y-132.952
X135.296Y-95.157
X135.583Y-103.291
X136.312Y-126.526
X136.878Y-120.208
X146.269Y-108.441
X149.045Y-100.65
X150.333Y-131.225
X150.663Y-118.728
X150.841Y-124.316
X151.248Y-93.938
X161.306Y-105.952
X163.363Y-97.9
X163.389Y-89.899
X164.202Y-114.842
X164.481Y-128.66
X165.268Y-120.862
T3
X103.525Y-86.741
X103.531Y-137.871
X105.525Y-86.741
X105.531Y-137.871
X107.525Y-86.741
X107.531Y-137.871
X109.525Y-86.741
X109.531Y-137.871
X111.525Y-86.741
X111.531Y-137.871
X175.64Y-111.742
X175.64Y-113.742
X175.64Y-115.742
X175.64Y-117.742
X175.64Y-119.742
X175.64Y-121.742
X175.64Y-123.742
X175.64Y-125.742
X175.64Y-127.742
X175.64Y-129.742
X175.64Y-131.742
X175.64Y-133.742
X175.733Y-83.768
X175.733Y-85.768
X175.733Y-87.768
X175.733Y-89.768
X175.733Y-91.768
X175.733Y-93.768
X175.733Y-95.768
X175.733Y-97.768
X175.733Y-99.768
X175.733Y-101.768
X175.733Y-103.768
X175.733Y-105.768
T4
X117.54Y-149.454
X120.04Y-149.454
M30
