%TF.GenerationSoftware,KiCad,Pcbnew,10.0.1*%
%TF.CreationDate,2026-05-02T11:53:12-06:00*%
%TF.ProjectId,Slice_board,536c6963-655f-4626-9f61-72642e6b6963,rev?*%
%TF.SameCoordinates,Original*%
%TF.FileFunction,Paste,Top*%
%TF.FilePolarity,Positive*%
%FSLAX46Y46*%
G04 Gerber Fmt 4.6, Leading zero omitted, Abs format (unit mm)*
G04 Created by KiCad (PCBNEW 10.0.1) date 2026-05-02 11:53:12*
%MOMM*%
%LPD*%
G01*
G04 APERTURE LIST*
G04 Aperture macros list*
%AMRoundRect*
0 Rectangle with rounded corners*
0 $1 Rounding radius*
0 $2 $3 $4 $5 $6 $7 $8 $9 X,Y pos of 4 corners*
0 Add a 4 corners polygon primitive as box body*
4,1,4,$2,$3,$4,$5,$6,$7,$8,$9,$2,$3,0*
0 Add four circle primitives for the rounded corners*
1,1,$1+$1,$2,$3*
1,1,$1+$1,$4,$5*
1,1,$1+$1,$6,$7*
1,1,$1+$1,$8,$9*
0 Add four rect primitives between the rounded corners*
20,1,$1+$1,$2,$3,$4,$5,0*
20,1,$1+$1,$4,$5,$6,$7,0*
20,1,$1+$1,$6,$7,$8,$9,0*
20,1,$1+$1,$8,$9,$2,$3,0*%
G04 Aperture macros list end*
%ADD10RoundRect,0.250000X0.350000X0.450000X-0.350000X0.450000X-0.350000X-0.450000X0.350000X-0.450000X0*%
%ADD11RoundRect,0.250000X-0.350000X-0.450000X0.350000X-0.450000X0.350000X0.450000X-0.350000X0.450000X0*%
%ADD12RoundRect,0.150000X-0.587500X-0.150000X0.587500X-0.150000X0.587500X0.150000X-0.587500X0.150000X0*%
%ADD13RoundRect,0.250000X0.475000X-0.337500X0.475000X0.337500X-0.475000X0.337500X-0.475000X-0.337500X0*%
%ADD14RoundRect,0.250000X-0.475000X0.337500X-0.475000X-0.337500X0.475000X-0.337500X0.475000X0.337500X0*%
%ADD15RoundRect,0.150000X0.825000X0.150000X-0.825000X0.150000X-0.825000X-0.150000X0.825000X-0.150000X0*%
%ADD16RoundRect,0.250000X-0.450000X0.350000X-0.450000X-0.350000X0.450000X-0.350000X0.450000X0.350000X0*%
G04 APERTURE END LIST*
D10*
%TO.C,R34*%
X128768600Y-104275800D03*
X126768600Y-104275800D03*
%TD*%
D11*
%TO.C,R15*%
X161294900Y-121080800D03*
X163294900Y-121080800D03*
%TD*%
%TO.C,R31*%
X158290000Y-104123400D03*
X160290000Y-104123400D03*
%TD*%
D12*
%TO.C,Q2*%
X135879600Y-130425800D03*
X135879600Y-132325800D03*
X137754600Y-131375800D03*
%TD*%
D13*
%TO.C,C1*%
X113309400Y-148687700D03*
X113309400Y-146612700D03*
%TD*%
D12*
%TO.C,Q1*%
X122420900Y-133729600D03*
X122420900Y-135629600D03*
X124295900Y-134679600D03*
%TD*%
D11*
%TO.C,R23*%
X161093400Y-112784800D03*
X163093400Y-112784800D03*
%TD*%
%TO.C,R25*%
X117973600Y-110549600D03*
X119973600Y-110549600D03*
%TD*%
D10*
%TO.C,R18*%
X129359900Y-119541200D03*
X127359900Y-119541200D03*
%TD*%
%TO.C,R22*%
X158724600Y-116975800D03*
X156724600Y-116975800D03*
%TD*%
%TO.C,R16*%
X172008800Y-118677600D03*
X170008800Y-118677600D03*
%TD*%
%TO.C,R28*%
X142062200Y-110194000D03*
X140062200Y-110194000D03*
%TD*%
D11*
%TO.C,R45*%
X147555200Y-92820400D03*
X149555200Y-92820400D03*
%TD*%
%TO.C,R11*%
X133102600Y-125129200D03*
X135102600Y-125129200D03*
%TD*%
D14*
%TO.C,C2*%
X105737800Y-130168300D03*
X105737800Y-132243300D03*
%TD*%
D12*
%TO.C,Q7*%
X152443700Y-122325000D03*
X152443700Y-124225000D03*
X154318700Y-123275000D03*
%TD*%
D11*
%TO.C,R33*%
X117964200Y-103386800D03*
X119964200Y-103386800D03*
%TD*%
D10*
%TO.C,R10*%
X129293100Y-126262000D03*
X127293100Y-126262000D03*
%TD*%
D12*
%TO.C,Q12*%
X165679400Y-112419000D03*
X165679400Y-114319000D03*
X167554400Y-113369000D03*
%TD*%
D11*
%TO.C,R29*%
X143354800Y-106434800D03*
X145354800Y-106434800D03*
%TD*%
D12*
%TO.C,Q22*%
X136771900Y-92784800D03*
X136771900Y-94684800D03*
X138646900Y-93734800D03*
%TD*%
D10*
%TO.C,R24*%
X172008800Y-112988000D03*
X170008800Y-112988000D03*
%TD*%
D11*
%TO.C,R5*%
X147336000Y-128837600D03*
X149336000Y-128837600D03*
%TD*%
D12*
%TO.C,Q13*%
X122344700Y-109726600D03*
X122344700Y-111626600D03*
X124219700Y-110676600D03*
%TD*%
D10*
%TO.C,R4*%
X142312900Y-131426600D03*
X140312900Y-131426600D03*
%TD*%
D11*
%TO.C,R43*%
X132197600Y-93303000D03*
X134197600Y-93303000D03*
%TD*%
%TO.C,R35*%
X131451600Y-102574000D03*
X133451600Y-102574000D03*
%TD*%
D10*
%TO.C,R6*%
X158790900Y-129648600D03*
X156790900Y-129648600D03*
%TD*%
D12*
%TO.C,Q9*%
X122954300Y-118591200D03*
X122954300Y-120491200D03*
X124829300Y-119541200D03*
%TD*%
D10*
%TO.C,R30*%
X154057600Y-107120600D03*
X152057600Y-107120600D03*
%TD*%
D12*
%TO.C,Q21*%
X122651800Y-96925000D03*
X122651800Y-98825000D03*
X124526800Y-97875000D03*
%TD*%
%TO.C,Q8*%
X165753300Y-117829200D03*
X165753300Y-119729200D03*
X167628300Y-118779200D03*
%TD*%
D10*
%TO.C,R20*%
X144549100Y-119465000D03*
X142549100Y-119465000D03*
%TD*%
D12*
%TO.C,Q19*%
X150028400Y-98438800D03*
X150028400Y-100338800D03*
X151903400Y-99388800D03*
%TD*%
D10*
%TO.C,R8*%
X172110400Y-127212000D03*
X170110400Y-127212000D03*
%TD*%
D11*
%TO.C,R3*%
X131264400Y-130590200D03*
X133264400Y-130590200D03*
%TD*%
%TO.C,R27*%
X131273800Y-109432000D03*
X133273800Y-109432000D03*
%TD*%
D10*
%TO.C,R46*%
X158521400Y-91804400D03*
X156521400Y-91804400D03*
%TD*%
D15*
%TO.C,U1*%
X113336600Y-129904400D03*
X113336600Y-128634400D03*
X113336600Y-127364400D03*
X113336600Y-126094400D03*
X113336600Y-124824400D03*
X113336600Y-123554400D03*
X113336600Y-122284400D03*
X113336600Y-121014400D03*
X108386600Y-121014400D03*
X108386600Y-122284400D03*
X108386600Y-123554400D03*
X108386600Y-124824400D03*
X108386600Y-126094400D03*
X108386600Y-127364400D03*
X108386600Y-128634400D03*
X108386600Y-129904400D03*
%TD*%
D12*
%TO.C,Q11*%
X152215100Y-116356000D03*
X152215100Y-118256000D03*
X154090100Y-117306000D03*
%TD*%
%TO.C,Q23*%
X152268200Y-90930600D03*
X152268200Y-92830600D03*
X154143200Y-91880600D03*
%TD*%
D11*
%TO.C,R17*%
X118031000Y-118652200D03*
X120031000Y-118652200D03*
%TD*%
%TO.C,R37*%
X145320000Y-100389600D03*
X147320000Y-100389600D03*
%TD*%
D10*
%TO.C,R32*%
X169357800Y-104402800D03*
X167357800Y-104402800D03*
%TD*%
D11*
%TO.C,R1*%
X117608600Y-133739800D03*
X119608600Y-133739800D03*
%TD*%
%TO.C,R7*%
X161093400Y-126221400D03*
X163093400Y-126221400D03*
%TD*%
D10*
%TO.C,R2*%
X129082800Y-134654200D03*
X127082800Y-134654200D03*
%TD*%
D11*
%TO.C,R9*%
X117837200Y-125281600D03*
X119837200Y-125281600D03*
%TD*%
%TO.C,R47*%
X160585400Y-88096000D03*
X162585400Y-88096000D03*
%TD*%
D12*
%TO.C,Q15*%
X147672500Y-105977200D03*
X147672500Y-107877200D03*
X149547500Y-106927200D03*
%TD*%
D14*
%TO.C,C4*%
X105959400Y-102912000D03*
X105959400Y-104987000D03*
%TD*%
D15*
%TO.C,U3*%
X113362000Y-102624800D03*
X113362000Y-101354800D03*
X113362000Y-100084800D03*
X113362000Y-98814800D03*
X113362000Y-97544800D03*
X113362000Y-96274800D03*
X113362000Y-95004800D03*
X113362000Y-93734800D03*
X108412000Y-93734800D03*
X108412000Y-95004800D03*
X108412000Y-96274800D03*
X108412000Y-97544800D03*
X108412000Y-98814800D03*
X108412000Y-100084800D03*
X108412000Y-101354800D03*
X108412000Y-102624800D03*
%TD*%
D11*
%TO.C,R41*%
X118165700Y-97798800D03*
X120165700Y-97798800D03*
%TD*%
D12*
%TO.C,Q10*%
X137838700Y-118616600D03*
X137838700Y-120516600D03*
X139713700Y-119566600D03*
%TD*%
%TO.C,Q3*%
X151900400Y-128851000D03*
X151900400Y-130751000D03*
X153775400Y-129801000D03*
%TD*%
D15*
%TO.C,U2*%
X113311000Y-116264600D03*
X113311000Y-114994600D03*
X113311000Y-113724600D03*
X113311000Y-112454600D03*
X113311000Y-111184600D03*
X113311000Y-109914600D03*
X113311000Y-108644600D03*
X113311000Y-107374600D03*
X108361000Y-107374600D03*
X108361000Y-108644600D03*
X108361000Y-109914600D03*
X108361000Y-111184600D03*
X108361000Y-112454600D03*
X108361000Y-113724600D03*
X108361000Y-114994600D03*
X108361000Y-116264600D03*
%TD*%
D12*
%TO.C,Q4*%
X165829500Y-126185800D03*
X165829500Y-128085800D03*
X167704500Y-127135800D03*
%TD*%
D14*
%TO.C,C3*%
X105857800Y-116395500D03*
X105857800Y-118470500D03*
%TD*%
D11*
%TO.C,R21*%
X147545800Y-117077400D03*
X149545800Y-117077400D03*
%TD*%
D10*
%TO.C,R38*%
X156353000Y-98738600D03*
X154353000Y-98738600D03*
%TD*%
D12*
%TO.C,Q20*%
X164026100Y-95070800D03*
X164026100Y-96970800D03*
X165901100Y-96020800D03*
%TD*%
D10*
%TO.C,R44*%
X143179800Y-93861800D03*
X141179800Y-93861800D03*
%TD*%
D12*
%TO.C,Q6*%
X137917200Y-124052200D03*
X137917200Y-125952200D03*
X139792200Y-125002200D03*
%TD*%
D11*
%TO.C,R19*%
X133100900Y-119379000D03*
X135100900Y-119379000D03*
%TD*%
D12*
%TO.C,Q14*%
X135933700Y-108913800D03*
X135933700Y-110813800D03*
X137808700Y-109863800D03*
%TD*%
D10*
%TO.C,R42*%
X129108200Y-96020800D03*
X127108200Y-96020800D03*
%TD*%
D12*
%TO.C,Q16*%
X162815800Y-103710400D03*
X162815800Y-105610400D03*
X164690800Y-104660400D03*
%TD*%
%TO.C,Q18*%
X136009900Y-100836600D03*
X136009900Y-102736600D03*
X137884900Y-101786600D03*
%TD*%
D10*
%TO.C,R48*%
X171094400Y-85048000D03*
X169094400Y-85048000D03*
%TD*%
%TO.C,R26*%
X128489200Y-111083000D03*
X126489200Y-111083000D03*
%TD*%
D11*
%TO.C,R13*%
X147799800Y-122792400D03*
X149799800Y-122792400D03*
%TD*%
%TO.C,R39*%
X159364500Y-97382600D03*
X161364500Y-97382600D03*
%TD*%
D10*
%TO.C,R40*%
X170180000Y-94954000D03*
X168180000Y-94954000D03*
%TD*%
D16*
%TO.C,R49*%
X107518200Y-90024200D03*
X107518200Y-92024200D03*
%TD*%
D10*
%TO.C,R36*%
X142240000Y-101812000D03*
X140240000Y-101812000D03*
%TD*%
D12*
%TO.C,Q5*%
X122698000Y-125337400D03*
X122698000Y-127237400D03*
X124573000Y-126287400D03*
%TD*%
D10*
%TO.C,R12*%
X144424400Y-124545000D03*
X142424400Y-124545000D03*
%TD*%
D12*
%TO.C,Q17*%
X122423200Y-103021000D03*
X122423200Y-104921000D03*
X124298200Y-103971000D03*
%TD*%
D10*
%TO.C,R14*%
X158724600Y-122792400D03*
X156724600Y-122792400D03*
%TD*%
D12*
%TO.C,Q24*%
X164938200Y-87435600D03*
X164938200Y-89335600D03*
X166813200Y-88385600D03*
%TD*%
M02*
