%TF.GenerationSoftware,KiCad,Pcbnew,10.0.1*%
%TF.CreationDate,2026-05-02T11:53:12-06:00*%
%TF.ProjectId,Slice_board,536c6963-655f-4626-9f61-72642e6b6963,rev?*%
%TF.SameCoordinates,Original*%
%TF.FileFunction,Soldermask,Bot*%
%TF.FilePolarity,Negative*%
%FSLAX46Y46*%
G04 Gerber Fmt 4.6, Leading zero omitted, Abs format (unit mm)*
G04 Created by KiCad (PCBNEW 10.0.1) date 2026-05-02 11:53:12*
%MOMM*%
%LPD*%
G01*
G04 APERTURE LIST*
G04 Aperture macros list*
%AMRoundRect*
0 Rectangle with rounded corners*
0 $1 Rounding radius*
0 $2 $3 $4 $5 $6 $7 $8 $9 X,Y pos of 4 corners*
0 Add a 4 corners polygon primitive as box body*
4,1,4,$2,$3,$4,$5,$6,$7,$8,$9,$2,$3,0*
0 Add four circle primitives for the rounded corners*
1,1,$1+$1,$2,$3*
1,1,$1+$1,$4,$5*
1,1,$1+$1,$6,$7*
1,1,$1+$1,$8,$9*
0 Add four rect primitives between the rounded corners*
20,1,$1+$1,$2,$3,$4,$5,0*
20,1,$1+$1,$4,$5,$6,$7,0*
20,1,$1+$1,$6,$7,$8,$9,0*
20,1,$1+$1,$8,$9,$2,$3,0*%
G04 Aperture macros list end*
%ADD10C,3.200000*%
%ADD11RoundRect,0.250000X0.625000X-0.350000X0.625000X0.350000X-0.625000X0.350000X-0.625000X-0.350000X0*%
%ADD12O,1.750000X1.200000*%
%ADD13RoundRect,0.250000X0.350000X0.625000X-0.350000X0.625000X-0.350000X-0.625000X0.350000X-0.625000X0*%
%ADD14O,1.200000X1.750000*%
%ADD15RoundRect,0.250000X-0.600000X-0.750000X0.600000X-0.750000X0.600000X0.750000X-0.600000X0.750000X0*%
%ADD16O,1.700000X2.000000*%
G04 APERTURE END LIST*
D10*
%TO.C,H4*%
X179000000Y-154000000D03*
%TD*%
D11*
%TO.C,J3*%
X175640400Y-133741600D03*
D12*
X175640400Y-131741600D03*
X175640400Y-129741600D03*
X175640400Y-127741600D03*
X175640400Y-125741600D03*
X175640400Y-123741600D03*
X175640400Y-121741600D03*
X175640400Y-119741600D03*
X175640400Y-117741600D03*
X175640400Y-115741600D03*
X175640400Y-113741600D03*
X175640400Y-111741600D03*
%TD*%
D13*
%TO.C,J1*%
X111531400Y-137871200D03*
D14*
X109531400Y-137871200D03*
X107531400Y-137871200D03*
X105531400Y-137871200D03*
X103531400Y-137871200D03*
%TD*%
D15*
%TO.C,J2*%
X117540400Y-149453600D03*
D16*
X120040400Y-149453600D03*
%TD*%
D13*
%TO.C,J5*%
X111524800Y-86741000D03*
D14*
X109524800Y-86741000D03*
X107524800Y-86741000D03*
X105524800Y-86741000D03*
X103524800Y-86741000D03*
%TD*%
D10*
%TO.C,H3*%
X101000000Y-154000000D03*
%TD*%
%TO.C,H1*%
X101000000Y-76000000D03*
%TD*%
D11*
%TO.C,J4*%
X175733200Y-105767800D03*
D12*
X175733200Y-103767800D03*
X175733200Y-101767800D03*
X175733200Y-99767800D03*
X175733200Y-97767800D03*
X175733200Y-95767800D03*
X175733200Y-93767800D03*
X175733200Y-91767800D03*
X175733200Y-89767800D03*
X175733200Y-87767800D03*
X175733200Y-85767800D03*
X175733200Y-83767800D03*
%TD*%
D10*
%TO.C,H2*%
X179000000Y-76000000D03*
%TD*%
M02*
